<svg width="20" height="21" viewBox="0 0 20 21" fill="none" xmlns="http://www.w3.org/2000/svg">
<path fill-rule="evenodd" clip-rule="evenodd" d="M18.25 2.75H10.75V1.25C10.75 0.835786 10.4142 0.5 10 0.5C9.58579 0.5 9.25 0.835786 9.25 1.25V2.75H1.75C0.921573 2.75 0.25 3.42157 0.25 4.25V15.5C0.25 16.3284 0.921573 17 1.75 17H5.44L3.41406 19.5312C3.15518 19.8549 3.20765 20.3271 3.53125 20.5859C3.85485 20.8448 4.32705 20.7924 4.58594 20.4688L7.36 17H12.64L15.4141 20.4688C15.6729 20.7924 16.1451 20.8448 16.4688 20.5859C16.7924 20.3271 16.8448 19.8549 16.5859 19.5312L14.56 17H18.25C19.0784 17 19.75 16.3284 19.75 15.5V4.25C19.75 3.42157 19.0784 2.75 18.25 2.75ZM18.25 15.5H1.75V4.25H18.25V15.5Z" fill="#1C170D"/>
</svg>
