<svg xmlns="http://www.w3.org/2000/svg" width="582" height="428" viewBox="0 0 582 428" version="1.1"><path d="M 80.667 128.667 C 79.694 129.639, 79.848 303.788, 80.822 304.390 C 81.274 304.670, 89.262 304.255, 98.572 303.468 C 107.882 302.682, 151.500 299.092, 195.500 295.491 C 239.500 291.890, 279.325 288.619, 284 288.222 L 292.500 287.500 292.785 277.250 L 293.070 267 290.035 267 L 287 267 287 274.500 C 287 279.975, 286.650 282, 285.704 282 C 284.992 282, 276.779 282.658, 267.454 283.463 C 251.158 284.869, 227.724 286.736, 173 290.989 C 110.945 295.811, 96.208 297.006, 91.750 297.578 L 87 298.188 87 215.965 L 87 133.742 92.750 134.358 C 95.912 134.696, 118.300 136.572, 142.500 138.527 C 166.700 140.481, 202.250 143.419, 221.500 145.057 C 240.750 146.694, 263.363 148.556, 271.750 149.193 L 287 150.353 287 157.676 L 287 165 290 165 L 293 165 293 154.500 L 293 144 290.168 144 C 287.759 144, 250.786 141.082, 156.500 133.450 C 84.206 127.598, 81.882 127.451, 80.667 128.667 M 291.265 170.542 C 272.155 175.688, 249 196.215, 249 208.010 C 249 213.393, 251.649 216.945, 257.821 219.838 C 262.850 222.195, 264.645 222.489, 273.500 222.405 C 284.709 222.299, 294.656 219.727, 305.998 214.001 C 312.029 210.957, 312.440 210.881, 313.685 212.583 C 314.408 213.573, 315 214.716, 315 215.124 C 315 217.165, 319.194 216.905, 322.696 214.647 C 328.879 210.661, 330.652 210.473, 331.458 213.719 C 332.374 217.411, 335.835 221, 338.477 221 C 339.648 221, 342.421 219.665, 344.640 218.034 L 348.673 215.067 350.867 218.034 C 353.902 222.139, 358.258 222.060, 363.417 217.808 C 366.634 215.156, 368.016 214.660, 371.577 214.879 C 373.935 215.024, 376.833 214.625, 378.016 213.992 C 379.736 213.071, 380.515 213.156, 381.912 214.420 C 384.344 216.621, 389.233 216.391, 392.365 213.927 C 393.814 212.788, 395 212.358, 395 212.973 C 395 215.188, 399.902 219, 402.705 218.965 C 404.242 218.945, 407.750 217.379, 410.500 215.483 C 414.770 212.540, 415.662 212.254, 416.610 213.519 C 418.171 215.602, 423.352 215.360, 428.292 212.973 C 432.234 211.068, 432.563 211.050, 433.744 212.664 C 434.435 213.609, 435 214.716, 435 215.124 C 435 216.401, 439.037 217.213, 440.298 216.189 C 440.959 215.652, 443.153 214.292, 445.173 213.167 L 448.846 211.120 449.871 214.060 C 451.547 218.869, 454.297 217.377, 454.592 211.500 C 454.675 209.850, 454.913 207.836, 455.121 207.024 C 455.870 204.105, 451.532 204.789, 449.188 207.959 C 446.173 212.037, 445 211.789, 445 207.071 C 445 202.363, 442.956 200, 438.883 200 C 435.400 200, 431 203.890, 431 206.969 C 431 209.374, 425.685 212.991, 422.143 212.996 C 420.264 212.999, 419.946 212.645, 420.574 211.250 C 421.007 210.287, 421.345 208.262, 421.324 206.750 C 421.304 205.238, 421.672 204, 422.144 204 C 422.615 204, 423 203.100, 423 202 C 423 200.516, 423.667 200, 425.583 200 C 427.205 200, 428.012 199.535, 427.750 198.750 C 427.453 197.858, 423.637 197.411, 414.441 197.190 C 407.349 197.020, 401.393 196.726, 401.204 196.538 C 401.015 196.349, 401.865 193.860, 403.093 191.006 C 405.565 185.259, 405.003 184.045, 399.857 184.015 C 396.872 183.998, 396.342 184.939, 395.418 191.903 L 394.765 196.831 388.882 197.514 C 385.647 197.889, 383 198.602, 383 199.098 C 383 200.131, 383.784 200.235, 390 200.028 L 394.500 199.878 394.153 204.939 C 393.866 209.139, 393.328 210.342, 390.999 212.001 C 386.484 215.215, 384.393 214.268, 385.578 209.546 C 386.078 207.552, 386.844 207, 389.108 207 C 392.203 207, 392.729 206.129, 390.800 204.200 C 388.767 202.167, 385.033 202.861, 382.462 205.750 C 381.117 207.262, 379.128 209.512, 378.043 210.750 C 376.811 212.156, 374.933 213, 373.036 213 C 368.986 213, 369.105 210.755, 373.250 208.930 C 375.669 207.866, 376.500 206.860, 376.500 205 C 376.500 203.063, 375.924 202.433, 373.945 202.202 C 370.697 201.824, 366.001 205.440, 365.996 208.323 C 365.987 213.961, 358.734 220.684, 355.530 218.025 C 353.565 216.394, 353.542 208.189, 355.495 205.609 C 357.442 203.037, 360.211 190.156, 359.819 185.493 C 359.448 181.084, 356.995 178.912, 354.250 180.562 C 353.288 181.141, 351.465 183.674, 350.200 186.192 C 348.263 190.045, 347.888 192.404, 347.826 201.108 L 347.753 211.447 344.404 214.796 C 339.873 219.327, 336.759 218.936, 335.918 213.730 C 335.529 211.324, 335.821 208.972, 336.726 207.230 C 339.358 202.162, 342 193.088, 342 189.113 C 342 183.700, 341.175 182, 338.548 182 C 333.538 182, 330.110 189.695, 330.044 201.089 C 330.003 208.246, 329.854 208.746, 327.436 209.847 C 325.872 210.560, 325.121 210.613, 325.510 209.983 C 326.431 208.494, 325.091 203.233, 323.347 201.490 C 319.822 197.965, 311 201.757, 311 206.797 C 311 208.175, 308.909 209.656, 303.250 212.283 C 292.296 217.370, 284.058 219.324, 273.168 219.419 C 264.139 219.497, 263.757 219.409, 261.418 216.694 C 256.571 211.070, 259.158 198.585, 267.027 189.622 C 270.680 185.462, 280.321 178.341, 286.550 175.203 C 290.955 172.985, 300.578 170.901, 302.686 171.710 C 304.539 172.421, 304.327 178.639, 302.335 182.010 C 300.154 185.702, 297.092 187, 290.564 187 C 284.035 187, 279.784 189.697, 281.602 192.687 C 285.363 198.873, 301.403 190.926, 306.122 180.539 C 308.482 175.341, 308.458 173.458, 306 171 C 303.627 168.627, 298.917 168.481, 291.265 170.542 M 131 174.535 C 131 175.380, 131.686 177.117, 132.524 178.396 C 134.930 182.068, 136.526 202.483, 135.162 212.131 C 133.439 224.316, 132.234 225.659, 126.285 222.033 C 118.873 217.513, 109.060 194.341, 109.015 181.250 C 108.993 175.053, 106.494 175.608, 104.507 182.250 C 101.153 193.460, 99.769 205.143, 100.215 218.500 C 100.657 231.743, 101.741 236, 104.671 236 C 106.013 236, 106.158 235.232, 105.566 231.250 C 103.290 215.942, 103.073 212.174, 103.999 204.090 C 104.541 199.366, 105.019 195.050, 105.063 194.500 C 105.106 193.950, 106.036 196.650, 107.129 200.500 C 113.212 221.928, 125.450 235.623, 132.553 228.950 C 135.505 226.177, 136.604 222.811, 138.001 212.264 C 139.208 203.149, 137.879 178.512, 135.990 174.982 C 134.739 172.643, 131 172.308, 131 174.535 M 354.991 192.560 C 353.640 202.079, 354.254 205.143, 355.846 196.829 C 357.411 188.659, 357.738 184.956, 356.936 184.460 C 356.534 184.212, 355.659 187.857, 354.991 192.560 M 337.646 188.250 C 337.329 190.037, 336.827 193.975, 336.531 197 C 335.992 202.496, 335.993 202.498, 337.482 199.290 C 339.395 195.172, 340.652 185, 339.249 185 C 338.684 185, 337.963 186.463, 337.646 188.250 M 400.170 206.997 C 400.640 215.328, 402.204 217.633, 406.322 216.068 C 409.294 214.938, 420.699 204, 418.905 204 C 418.259 204, 417.993 203.135, 418.290 202 C 418.786 200.103, 418.320 200, 409.294 200 L 399.774 200 400.170 206.997 M 186.616 205.003 C 183.248 208.731, 183 208.841, 183 206.610 C 183 203.608, 180.262 202.453, 178 204.500 C 177.059 205.352, 175.580 205.776, 174.712 205.443 C 173.631 205.028, 172.639 205.797, 171.557 207.889 C 169.745 211.394, 167.234 213, 163.566 213 C 160.229 213, 160.147 210.252, 163.459 209.421 C 168.880 208.060, 169.409 202, 164.107 202 C 161.372 202, 157 205.532, 157 207.742 C 157 208.354, 155.787 209.809, 154.305 210.975 C 151.085 213.507, 146.675 213.333, 146.167 210.653 C 145.891 209.203, 146.248 208.944, 147.830 209.446 C 150.705 210.359, 154.295 206.419, 152.923 203.856 C 151.478 201.156, 147.774 201.583, 144.687 204.805 C 141.813 207.805, 141.380 209.972, 143.035 213.066 C 143.836 214.563, 145.148 215, 148.835 215 C 151.456 215, 154.151 214.449, 154.825 213.775 C 155.792 212.808, 156.464 212.808, 158.011 213.775 C 160.665 215.432, 167.175 215.324, 169.556 213.583 C 170.795 212.677, 171.900 212.502, 172.620 213.100 C 174.115 214.340, 176.776 213.246, 177.327 211.165 C 177.650 209.945, 177.799 210.069, 177.884 211.628 C 177.948 212.798, 178.726 214.357, 179.613 215.093 C 181.312 216.504, 182.975 215.097, 188.678 207.429 L 190.856 204.500 189.392 209.500 C 187.336 216.518, 188.133 219, 192.442 219 C 194.578 219, 196.911 218.104, 198.703 216.597 C 200.593 215.006, 202.395 214.346, 204.030 214.644 C 205.736 214.956, 207.350 214.295, 209.250 212.507 L 212 209.919 212 212.460 C 212 213.857, 212.883 215.883, 213.961 216.961 C 216.699 219.699, 220.344 218.250, 226.536 211.964 C 232.359 206.052, 230.605 205.266, 224.384 211 C 219.143 215.831, 216.442 216.318, 217.444 212.250 C 219.576 203.594, 219.530 203.455, 214.690 203.958 C 213.695 204.061, 212.238 203.613, 211.453 202.961 C 209.117 201.022, 205.185 202.764, 202.402 206.969 C 199.387 211.525, 195.430 214.504, 194.466 212.945 C 194.115 212.377, 193.927 210.019, 194.048 207.706 C 194.169 205.393, 194.208 202.938, 194.134 202.250 C 193.864 199.737, 190.142 201.101, 186.616 205.003 M 461.447 202.765 C 459.533 204.101, 455 210.663, 455.003 212.094 C 455.004 212.867, 456.838 211.475, 459.079 209 C 461.376 206.462, 462.858 205.372, 462.477 206.500 C 460.728 211.688, 460.744 216.060, 462.520 218.022 C 464.880 220.629, 470 220.574, 473.393 217.905 C 476.471 215.484, 480.403 208.367, 479.106 207.565 C 478.035 206.903, 476.482 208.726, 475.563 211.724 C 474.749 214.381, 470.162 218.218, 468.803 217.379 C 468.246 217.034, 468.126 214.719, 468.519 211.865 C 469.504 204.703, 465.695 199.801, 461.447 202.765 M 317.980 205.038 C 316.691 207.445, 317.574 211, 319.460 211 C 321.011 211, 322 208.826, 322 205.418 C 322 202.433, 319.500 202.197, 317.980 205.038 M 437.801 205.537 C 436.860 207.604, 436.938 208.367, 438.227 209.655 C 440.427 211.856, 442 210.516, 442 206.441 C 442 202.257, 439.537 201.726, 437.801 205.537 M 208.035 206.934 C 206.280 210.214, 206.934 211.659, 209.033 209.139 C 210.115 207.841, 211 206.378, 211 205.889 C 211 204.286, 209.093 204.958, 208.035 206.934 M 139 247 C 134.735 251.265, 137.676 260, 143.378 260 C 144.685 260, 146.308 259.333, 146.985 258.518 C 148.071 257.210, 148.461 257.210, 150.330 258.518 C 153.216 260.540, 155.622 260.378, 158 258 C 162.293 253.707, 159.317 245, 153.557 245 C 150.377 245, 148 248.469, 148 253.109 C 148 256.409, 147.704 256.816, 145.023 257.210 C 140.806 257.829, 139.817 256.846, 140.181 252.398 C 140.484 248.697, 140.664 248.507, 143.750 248.647 C 147.183 248.803, 148.325 246.722, 145.418 245.607 C 142.715 244.570, 141.074 244.926, 139 247 M 176.250 245.639 C 174.303 246.461, 174.538 259, 176.500 259 C 177.422 259, 178 258.063, 178 256.570 C 178 254.810, 178.621 254.051, 180.250 253.820 C 183.256 253.393, 182.723 251.582, 179.472 251.178 C 175.900 250.734, 176.922 248.572, 180.888 248.182 C 182.825 247.992, 183.966 247.390, 183.734 246.682 C 183.325 245.435, 178.370 244.744, 176.250 245.639 M 186.441 246.419 C 183.698 248.425, 183.698 256.575, 186.441 258.581 C 191.084 261.975, 196 258.733, 196 252.277 C 196 246.465, 190.766 243.257, 186.441 246.419 M 199.067 246.419 C 197.531 248.270, 198.080 258.205, 199.750 258.755 C 200.534 259.013, 201 258.203, 201 256.583 C 201 253.304, 202.344 253.264, 203.818 256.500 C 204.445 257.875, 205.642 259, 206.479 259 C 208.285 259, 208.444 257.844, 206.856 256.256 C 205.996 255.396, 206.042 254.314, 207.037 251.911 C 208.261 248.957, 208.186 248.569, 206.070 246.856 C 203.334 244.640, 200.681 244.475, 199.067 246.419 M 208.428 246.117 C 208.082 246.677, 208.744 247.382, 209.899 247.684 C 211.705 248.156, 212 248.988, 212 253.617 C 212 257.735, 212.352 259, 213.500 259 C 214.652 259, 215 257.722, 215 253.500 C 215 248.593, 215.225 248, 217.083 248 C 218.306 248, 218.994 247.483, 218.750 246.750 C 218.241 245.223, 209.319 244.675, 208.428 246.117 M 228.245 246.155 C 226.361 248.039, 226.579 259, 228.500 259 C 229.422 259, 230 258.063, 230 256.570 C 230 254.840, 230.626 254.047, 232.172 253.820 C 235.373 253.348, 235.716 251, 232.583 251 C 230.954 251, 230 250.446, 230 249.500 C 230 248.491, 231.009 248, 233.083 248 C 235.102 248, 236.025 247.568, 235.756 246.750 C 235.197 245.046, 229.783 244.617, 228.245 246.155 M 249.250 245.662 C 248.563 245.940, 248 247.468, 248 249.058 C 248 251.258, 248.716 252.319, 251 253.500 C 255.294 255.721, 254.747 257.169, 249.750 256.807 C 245.603 256.507, 245.462 256.378, 243.919 251.500 C 241.783 244.748, 239.942 244.668, 237.615 251.224 C 236.585 254.126, 235.527 257.063, 235.264 257.750 C 235.001 258.438, 235.457 259, 236.276 259 C 237.096 259, 238.002 258.100, 238.290 257 C 238.948 254.482, 240.458 254.458, 242.928 256.928 C 244.996 258.996, 252.777 260.561, 254.615 259.278 C 255.229 258.850, 256.046 257.490, 256.431 256.255 C 257.010 254.401, 256.511 253.644, 253.566 251.906 C 249.516 249.517, 248.922 247.770, 252.250 248.039 C 255.877 248.333, 256.317 248.087, 255 246.500 C 253.762 245.008, 251.638 244.699, 249.250 245.662 M 278.441 246.419 C 277 247.473, 276.500 249.040, 276.500 252.500 C 276.500 255.960, 277 257.527, 278.441 258.581 C 283.083 261.975, 288 258.935, 288 252.671 C 288 246.465, 282.922 243.143, 278.441 246.419 M 324.084 246.399 C 323.399 247.224, 322.923 249.159, 323.025 250.700 C 323.563 258.766, 322.035 259.126, 319.632 251.500 C 318.678 248.475, 317.334 246, 316.644 246 C 315.955 246, 314.424 248.796, 313.243 252.214 C 311.095 258.429, 311.133 260.874, 313.332 257.936 C 315.324 255.276, 317.862 254.874, 319.020 257.037 C 319.701 258.310, 321.113 259, 323.035 259 C 325.508 259, 326 258.597, 326 256.570 C 326 254.840, 326.626 254.047, 328.172 253.820 C 331.373 253.348, 331.716 251, 328.583 251 C 326.954 251, 326 250.446, 326 249.500 C 326 248.491, 327.009 248, 329.083 248 C 331.102 248, 332.025 247.568, 331.756 246.750 C 331.146 244.891, 325.548 244.635, 324.084 246.399 M 334.708 245.694 C 334.444 246.137, 333.907 249.313, 333.516 252.750 C 332.905 258.107, 333.032 259, 334.402 259 C 335.428 259, 336 258.129, 336 256.566 C 336 254.655, 336.590 254.065, 338.750 253.816 C 342.136 253.427, 341.986 251.615, 338.531 251.184 C 334.812 250.719, 335.284 248, 339.083 248 C 341.102 248, 342.025 247.568, 341.756 246.750 C 341.292 245.334, 335.443 244.458, 334.708 245.694 M 344.557 247.223 C 341.038 252.246, 343.586 260, 348.756 260 C 351.307 260, 355 255.564, 355 252.500 C 355 249.277, 351.284 245, 348.484 245 C 347.168 245, 345.421 245.989, 344.557 247.223 M 357.667 245.667 C 357.300 246.033, 357 249.221, 357 252.750 C 357 257.362, 357.344 259.052, 358.222 258.759 C 358.895 258.535, 359.694 257.297, 359.998 256.009 L 360.551 253.666 362.299 256.333 C 363.260 257.800, 364.780 259, 365.678 259 C 367.152 259, 367.142 258.814, 365.575 257.083 C 364.215 255.580, 364.074 254.731, 364.920 253.149 C 366.416 250.354, 366.271 248.414, 364.429 246.571 C 362.834 244.977, 358.885 244.449, 357.667 245.667 M 369.396 246.411 C 369.053 247.304, 368.711 250.390, 368.636 253.268 L 368.500 258.500 372.460 258.823 C 375.354 259.059, 376.768 258.671, 377.710 257.382 C 380.799 253.157, 378.126 246.707, 372.759 245.437 C 370.738 244.958, 369.855 245.214, 369.396 246.411 M 392.667 245.667 C 392.300 246.033, 392 249.183, 392 252.667 L 392 259 396.500 259 L 401 259 401 253.035 C 401 248.161, 400.646 246.881, 399.066 246.035 C 396.869 244.860, 393.658 244.675, 392.667 245.667 M 422.602 245.731 C 421.639 246.694, 423.053 248, 425.059 248 C 426.749 248, 427 248.723, 427 253.583 C 427 257.484, 427.362 259.046, 428.201 258.766 C 428.980 258.507, 429.305 256.543, 429.127 253.183 C 428.866 248.269, 428.979 248, 431.312 248 C 433.127 248, 434.195 248.892, 435.386 251.401 C 436.274 253.272, 437 255.747, 437 256.901 C 437 258.056, 437.450 259, 438 259 C 438.550 259, 439.003 257.762, 439.007 256.250 C 439.010 254.738, 439.907 252.150, 441 250.500 C 443.354 246.945, 443.482 246, 441.608 246 C 440.843 246, 439.934 247.125, 439.589 248.500 C 438.834 251.509, 437.371 251.746, 436.500 248.999 C 436.150 247.898, 435.108 246.609, 434.182 246.133 C 432.318 245.175, 423.466 244.868, 422.602 245.731 M 162 252.583 C 162 257.415, 162.333 259.051, 163.250 258.732 C 164.008 258.468, 164.463 256.621, 164.405 254.034 L 164.310 249.770 166.650 253.635 C 167.937 255.761, 168.992 257.837, 168.995 258.250 C 168.998 258.663, 169.675 259, 170.500 259 C 171.679 259, 172 257.611, 172 252.500 C 172 245.299, 170.292 243.547, 169.807 250.250 L 169.500 254.500 167.066 250.250 C 163.474 243.979, 162 244.659, 162 252.583 M 258 252.500 C 258 257.611, 258.321 259, 259.500 259 C 260.433 259, 261 258.056, 261 256.500 C 261 254.500, 261.500 254, 263.500 254 C 265.500 254, 266 254.500, 266 256.500 C 266 258.056, 266.567 259, 267.500 259 C 268.679 259, 269 257.611, 269 252.500 C 269 247.389, 268.679 246, 267.500 246 C 266.567 246, 266 246.944, 266 248.500 C 266 250.500, 265.500 251, 263.500 251 C 261.500 251, 261 250.500, 261 248.500 C 261 246.944, 260.433 246, 259.500 246 C 258.321 246, 258 247.389, 258 252.500 M 272 251.500 C 272 254.525, 271.966 257.326, 271.925 257.725 C 271.884 258.124, 272.334 258.611, 272.925 258.808 C 273.619 259.040, 274 256.834, 274 252.583 C 274 248.861, 273.565 246, 273 246 C 272.450 246, 272 248.475, 272 251.500 M 290 252.500 C 290 257.842, 290.291 259, 291.630 259 C 292.969 259, 293.170 258.201, 292.755 254.518 C 292.477 252.053, 292.644 250.280, 293.125 250.577 C 293.606 250.875, 294 251.585, 294 252.155 C 294 253.978, 298.085 259, 299.568 259 C 300.664 259, 301 257.474, 301 252.500 C 301 247.389, 300.679 246, 299.500 246 C 298.408 246, 297.989 247.156, 297.961 250.250 L 297.922 254.500 295.359 250.250 C 291.564 243.956, 290 244.612, 290 252.500 M 381.228 252.250 C 378.970 259.128, 379.209 260.687, 381.996 257.250 C 384.255 254.464, 386.660 254.354, 387.500 257 C 388.105 258.907, 390 259.843, 390 258.236 C 390 257.816, 389.100 255.009, 388 252 C 386.900 248.991, 386 246.409, 386 246.264 C 386 246.119, 385.388 246, 384.640 246 C 383.857 246, 382.409 248.652, 381.228 252.250 M 403.498 252.250 C 403.553 256.428, 403.981 258.500, 404.790 258.500 C 405.455 258.500, 406 258.163, 406 257.750 C 406 257.337, 406 254.525, 406 251.500 C 406 247.672, 405.607 246, 404.708 246 C 403.782 246, 403.440 247.767, 403.498 252.250 M 409 252.500 L 409 259 413 259 C 415.200 259, 417 258.550, 417 258 C 417 257.450, 415.650 257, 414 257 C 411.030 257, 411 256.944, 411 251.500 C 411 248.475, 410.550 246, 410 246 C 409.436 246, 409 248.833, 409 252.500 M 418.409 247.377 C 417.460 249.851, 418.459 258.330, 419.750 258.755 C 420.665 259.056, 421 257.403, 421 252.583 C 421 246.474, 419.733 243.927, 418.409 247.377 M 151.709 248.624 C 150.258 250.075, 150.957 256.770, 152.627 257.410 C 155.269 258.424, 157.133 256.047, 156.801 252.086 C 156.572 249.361, 156.010 248.430, 154.459 248.208 C 153.336 248.047, 152.099 248.235, 151.709 248.624 M 187.667 248.667 C 186.465 249.868, 186.969 255.729, 188.373 256.895 C 189.129 257.522, 190.451 257.764, 191.312 257.434 C 193.415 256.627, 194.514 251.325, 192.966 249.459 C 191.707 247.942, 188.823 247.511, 187.667 248.667 M 201 250.073 C 201 251.504, 201.539 252.043, 202.739 251.812 C 205.345 251.310, 205.636 248, 203.073 248 C 201.642 248, 201 248.642, 201 250.073 M 279.667 248.667 C 278.148 250.186, 279.025 255.943, 280.931 256.963 C 283.093 258.120, 286 256.056, 286 253.363 C 286 249.458, 281.909 246.424, 279.667 248.667 M 345.392 250.574 C 344.640 253.570, 346.362 258, 348.279 258 C 351.355 258, 352.959 253.663, 351.393 249.582 C 350.369 246.913, 346.135 247.613, 345.392 250.574 M 359.175 249.669 C 359.599 251.870, 363.500 252.169, 363.500 250 C 363.500 249.175, 362.447 248.351, 361.161 248.169 C 359.347 247.912, 358.901 248.249, 359.175 249.669 M 371 252.570 C 371 256.736, 371.198 257.111, 373.250 256.820 C 374.998 256.571, 375.572 255.743, 375.824 253.105 C 376.142 249.771, 374.932 248.048, 372.250 248.015 C 371.430 248.005, 371 249.572, 371 252.570 M 394 249.500 C 394 250.333, 394.889 251, 396 251 C 397.111 251, 398 250.333, 398 249.500 C 398 248.667, 397.111 248, 396 248 C 394.889 248, 394 248.667, 394 249.500 M 240 250.941 C 240 252.073, 240.450 253, 241 253 C 241.550 253, 242 252.352, 242 251.559 C 242 250.766, 241.550 249.840, 241 249.500 C 240.450 249.160, 240 249.809, 240 250.941 M 384 250.941 C 384 252.073, 384.450 253, 385 253 C 385.550 253, 386 252.352, 386 251.559 C 386 250.766, 385.550 249.840, 385 249.500 C 384.450 249.160, 384 249.809, 384 250.941 M 315.525 250.960 C 314.677 252.332, 315.428 253.362, 316.905 252.854 C 317.511 252.646, 317.588 251.940, 317.093 251.143 C 316.468 250.137, 316.063 250.090, 315.525 250.960 M 394 255.500 C 394 256.433, 394.944 257, 396.500 257 C 398.056 257, 399 256.433, 399 255.500 C 399 254.567, 398.056 254, 396.500 254 C 394.944 254, 394 254.567, 394 255.500 M 218 260.083 C 218 263.909, 220.356 263.566, 220.816 259.673 C 221.041 257.779, 220.677 257, 219.566 257 C 218.483 257, 218 257.951, 218 260.083 M 303.667 257.667 C 302.603 258.730, 302.896 263, 304.032 263 C 305.204 263, 306.996 258.893, 306.324 257.750 C 305.777 256.821, 304.551 256.783, 303.667 257.667" stroke="none" fill="#787878" fill-rule="evenodd"/></svg>