<svg xmlns="http://www.w3.org/2000/svg" width="704" height="315" viewBox="0 0 704 315" version="1.1"><path d="M 143 154.389 C 143 244.704, 143.007 245, 145.025 245 C 146.138 245, 165.151 243.656, 187.275 242.014 C 209.399 240.371, 258.550 236.783, 296.500 234.040 C 334.450 231.298, 368.538 228.771, 372.250 228.425 L 379 227.797 379 218.399 C 379 209.667, 378.858 209, 377 209 C 375.180 209, 375 209.667, 375 216.399 L 375 223.797 368.250 224.424 C 359.356 225.250, 151.832 240, 149.106 240 L 147 240 147 154.466 L 147 68.931 151.750 69.496 C 155.930 69.993, 214.495 74.243, 331 82.505 C 350.525 83.889, 368.413 85.270, 370.750 85.572 L 375 86.123 375 93.061 C 375 99.333, 375.192 100, 377 100 C 378.856 100, 379 99.333, 379 90.744 L 379 81.488 264.250 73.179 C 201.137 68.609, 148.037 64.624, 146.250 64.324 L 143 63.777 143 154.389 M 363.500 107.406 C 352.193 111, 337.832 120.264, 328.720 129.839 C 316.311 142.881, 315.929 153.342, 327.652 159.113 C 331.892 161.201, 333.879 161.495, 343.500 161.460 C 358.153 161.407, 371.219 157.853, 383.130 150.681 L 388.640 147.363 391.385 151.181 C 394.133 155.005, 398.065 156.322, 399.551 153.917 C 399.919 153.322, 402.090 152.033, 404.374 151.054 C 406.659 150.075, 409.197 148.436, 410.014 147.413 C 411.149 145.993, 410.818 146.079, 408.615 147.777 C 404.767 150.743, 402.138 150.730, 402.708 147.747 C 403.242 144.953, 401.449 140, 399.902 140 C 399.079 140, 399.104 140.420, 399.991 141.489 C 400.775 142.434, 400.986 144.262, 400.568 146.489 C 400.037 149.320, 399.454 150, 397.562 150 C 393.633 150, 392.824 145.639, 396.101 142.122 C 397.256 140.882, 397.979 139.646, 397.709 139.375 C 396.662 138.329, 390.159 141.924, 389.533 143.895 C 388.183 148.149, 368.758 156.764, 354.162 159.583 C 335.610 163.166, 328 159.566, 328 147.209 C 328 131.586, 352.358 108.957, 370.993 107.267 C 376.673 106.752, 376.990 106.844, 377.916 109.278 C 379.250 112.788, 377.632 118.111, 374.074 121.921 C 371.476 124.702, 370.613 125, 365.164 125 C 357.214 125, 354 126.255, 354 129.359 C 354 137.262, 372.809 129.226, 377.912 119.143 C 381.175 112.696, 381.437 109.420, 378.836 107.597 C 376.120 105.695, 369.153 105.608, 363.500 107.406 M 195 111.893 C 195 112.934, 195.623 114.025, 196.384 114.317 C 198.048 114.956, 199.994 125.278, 200.015 133.582 C 200.024 136.837, 200.469 140.175, 201.005 141 C 201.952 142.458, 201.868 139.193, 200.453 119.574 C 200.178 115.765, 199.459 112.053, 198.854 111.324 C 197.241 109.380, 195 109.711, 195 111.893 M 165.743 125.750 C 162.643 138.323, 161.190 152.381, 162.882 153.427 C 163.645 153.899, 164.011 152.591, 164.035 149.309 C 164.070 144.495, 166.468 129.199, 167.322 128.345 C 167.571 128.096, 168.550 131.403, 169.497 135.696 C 173.975 155.993, 183.451 169.986, 192.724 169.996 C 195.237 169.999, 196.259 169.393, 197.353 167.250 C 199.449 163.145, 201.017 154.633, 200.864 148.201 C 200.737 142.889, 200.674 143.057, 199.937 150.658 C 198.480 165.703, 194.315 168.817, 186.525 160.688 C 179.993 153.870, 171 133.706, 171 125.878 C 171 124.360, 170.580 122.858, 170.066 122.541 C 169.552 122.223, 169.386 120.397, 169.697 118.482 C 170.007 116.567, 169.841 115, 169.328 115 C 168.814 115, 167.201 119.838, 165.743 125.750 M 436.625 118.861 C 433.611 122.193, 431.863 129.936, 431.821 140.141 C 431.779 150.729, 430.690 153.587, 425.359 157.102 C 423.786 158.139, 423.061 158.990, 423.747 158.993 C 424.433 158.997, 426.713 157.447, 428.814 155.549 L 432.634 152.098 433.902 155.606 C 434.670 157.728, 436.151 159.487, 437.651 160.057 C 441.040 161.346, 441.834 161.190, 439.789 159.637 C 437.837 158.154, 436 153.860, 436 150.781 C 436 149.633, 437.123 146.320, 438.495 143.419 C 441.719 136.604, 443.190 129.595, 442.807 122.873 C 442.548 118.335, 442.181 117.454, 440.445 117.206 C 439.314 117.044, 437.596 117.789, 436.625 118.861 M 417.076 121.631 C 414.038 125.493, 412.632 131.473, 412.639 140.500 C 412.645 148.813, 414.093 154.951, 416.652 157.509 C 419.018 159.875, 420.008 159.244, 418.497 156.332 C 415.351 150.269, 418.648 119.429, 422.207 121.628 C 424.263 122.898, 422.310 134.268, 418.465 143.414 C 417.927 144.694, 418.017 145.108, 418.736 144.663 C 421.982 142.657, 425.401 123.393, 423.020 120.524 C 421.187 118.315, 419.426 118.643, 417.076 121.631 M 439.670 120.750 C 438.995 121.881, 437.173 131.737, 436.410 138.391 C 435.604 145.417, 436.996 145.352, 439.460 138.249 C 441.553 132.213, 442.720 120, 441.204 120 C 440.607 120, 439.916 120.338, 439.670 120.750 M 493.975 124.565 C 493.439 125.976, 493 127.945, 493 128.940 C 493 129.936, 492.723 132.137, 492.384 133.832 C 491.779 136.857, 491.644 136.920, 485.134 137.261 L 478.500 137.608 485.250 137.804 L 492 138 492 143.851 C 492 160.270, 499.152 162.328, 513.945 150.166 C 517.952 146.871, 518 146.860, 518 149.216 C 518 150.527, 518.540 152.140, 519.200 152.800 C 520.584 154.184, 525.862 154.374, 527.854 153.111 C 528.729 152.557, 527.846 152.297, 525.354 152.377 C 521.375 152.504, 521.222 152.273, 522.123 147.500 C 522.436 145.838, 521.993 145.524, 519.500 145.641 C 517.445 145.738, 514.949 147.219, 511.575 150.342 C 500.061 161.003, 495.323 158.567, 496.276 142.475 C 496.582 137.303, 497.540 132.615, 498.972 129.286 C 501.430 123.573, 501.094 122, 497.416 122 C 495.690 122, 494.658 122.769, 493.975 124.565 M 508.287 136.740 C 511.469 136.939, 516.419 136.937, 519.287 136.736 C 522.154 136.535, 519.550 136.372, 513.500 136.374 C 507.450 136.376, 505.104 136.541, 508.287 136.740 M 520.446 140.087 C 519.573 141.499, 521.501 143.427, 522.913 142.554 C 524.499 141.574, 524.243 139, 522.559 139 C 521.766 139, 520.816 139.489, 520.446 140.087 M 542.028 140.113 C 540.669 140.656, 539.213 141.640, 538.794 142.300 C 537.662 144.080, 537.840 150, 539.025 150 C 539.588 150, 540.477 151.125, 541 152.500 C 541.704 154.352, 542.682 155, 544.775 155 C 546.329 155, 548.130 154.470, 548.779 153.821 C 549.427 153.173, 551.848 151.691, 554.160 150.527 C 556.472 149.363, 558.568 147.756, 558.819 146.955 C 559.115 146.008, 558.440 146.234, 556.887 147.601 C 552.410 151.542, 551.120 151.372, 551.183 146.849 C 551.218 144.259, 550.616 142.216, 549.502 141.155 C 547.874 139.602, 547.833 139.630, 548.837 141.598 C 550.544 144.942, 548.866 149.500, 545.928 149.500 C 543.947 149.500, 543.445 148.932, 543.199 146.415 C 543.016 144.537, 543.505 142.826, 544.449 142.042 C 546.071 140.697, 546.539 138.954, 545.250 139.063 C 544.837 139.098, 543.388 139.571, 542.028 140.113 M 266.149 142.750 C 264.665 144.262, 262.470 146.850, 261.271 148.500 L 259.091 151.500 259.652 147.898 C 260.104 145.001, 259.852 144.157, 258.366 143.587 C 256.548 142.889, 255.474 143.777, 252.264 148.631 C 251.165 150.294, 251.094 150.196, 251.623 147.750 C 252.078 145.644, 251.840 145, 250.608 145 C 249.437 145, 249 145.951, 249 148.500 C 249 152.821, 251.004 153.131, 253.849 149.250 L 255.864 146.500 255.779 149.796 C 255.686 153.372, 257.175 155.628, 258.918 154.551 C 259.518 154.180, 261.889 151.109, 264.185 147.728 C 268.557 141.289, 269.850 141.277, 268.069 147.690 C 266.657 152.775, 266.725 156.541, 268.250 157.730 C 270.470 159.462, 275.588 157.170, 279.867 152.528 C 283.621 148.456, 284 148.262, 284 150.415 C 284 152.375, 285.623 154, 287.579 154 C 287.807 154, 289.796 152.373, 291.997 150.384 L 296 146.767 296 151.415 C 296 159.018, 301.120 158.975, 308.857 151.306 L 313.500 146.704 308.772 150.852 C 301.350 157.365, 296.752 156.248, 300.572 148.860 C 302.726 144.695, 301.775 142.595, 298.072 143.336 C 296.164 143.717, 294.761 143.417, 293.965 142.458 C 292.174 140.300, 290.182 140.672, 287.036 143.750 C 285.491 145.262, 283.524 146.950, 282.665 147.500 C 281.806 148.050, 279.246 149.822, 276.977 151.438 C 271.881 155.066, 270.997 154.125, 271.746 145.864 C 272.207 140.784, 272.048 140, 270.562 140 C 269.618 140, 267.632 141.238, 266.149 142.750 M 215.428 142.037 C 212.845 142.993, 211.321 144.875, 210.508 148.112 C 209.602 151.724, 212.141 154.037, 216.821 153.864 C 219.514 153.764, 219.830 153.611, 218 153.293 C 215.615 152.878, 213 150.533, 213 148.809 C 213 148.364, 214.260 148, 215.800 148 C 218.967 148, 221 146.404, 221 143.917 C 221 141.928, 218.241 140.997, 215.428 142.037 M 456.388 144.079 C 454.249 145.773, 451.825 148.388, 451 149.892 C 448.713 154.059, 446.745 156.432, 444.027 158.300 C 442.668 159.235, 442.005 160, 442.555 160 C 444.391 160, 448.110 156.830, 451.071 152.744 C 452.764 150.406, 454 149.381, 454 150.315 C 454 152.488, 457.140 154.033, 461.184 153.850 L 464.500 153.700 461.503 153.260 C 457.045 152.605, 454.912 148, 459.066 148 C 461.952 148, 465 146.202, 465 144.500 C 465 143.302, 462.174 141, 460.703 141 C 460.468 141, 458.526 142.386, 456.388 144.079 M 572.892 142.250 C 572.072 142.938, 570.757 144.400, 569.968 145.500 C 568.576 147.442, 568.595 147.449, 570.596 145.750 C 573.557 143.236, 575.404 143.473, 574.503 146.250 C 574.102 147.488, 573.544 150.266, 573.265 152.424 C 572.652 157.158, 574.539 159, 580.004 159 C 584.234 159, 587.981 155.685, 590.460 149.750 C 592.640 144.533, 591.462 145.039, 588.940 150.404 C 586.446 155.709, 583.787 158.299, 581.324 157.821 C 579.758 157.517, 579.500 156.438, 579.500 150.199 C 579.500 144.827, 579.109 142.683, 578 141.981 C 575.971 140.695, 574.663 140.764, 572.892 142.250 M 231.073 144.635 C 227.128 149.649, 229.419 154.101, 235.821 153.864 C 238.584 153.762, 238.877 153.613, 237 153.268 C 232.254 152.395, 229.805 148, 234.066 148 C 237.258 148, 240 146.135, 240 143.965 C 240 140.789, 233.727 141.260, 231.073 144.635 M 289.596 145.110 C 288.248 148.315, 288.429 151, 289.992 151 C 291.296 151, 294.144 145.986, 293.812 144.274 C 293.241 141.329, 290.999 141.774, 289.596 145.110 M 475.635 144.073 C 472.554 146.496, 472.104 150.961, 474.679 153.536 C 477.311 156.168, 483.826 154.878, 487.250 151.046 C 491.559 146.224, 490.468 145.297, 485.882 149.882 C 481.640 154.125, 478.370 155.128, 477.361 152.498 C 476.551 150.388, 477.693 146.450, 479.695 144.447 C 481.285 142.857, 481.426 142.864, 482.021 144.561 C 482.461 145.814, 482.879 146.005, 483.387 145.184 C 485.528 141.719, 479.691 140.882, 475.635 144.073 M 215.506 144.994 C 213.849 146.825, 213.837 147, 215.376 147 C 216.304 147, 217.329 146.306, 217.655 145.457 C 218.586 143.030, 217.495 142.795, 215.506 144.994 M 234.573 144.521 C 233.513 145.323, 232.931 146.265, 233.280 146.613 C 234.331 147.665, 237 146.171, 237 144.531 C 237 142.689, 236.996 142.689, 234.573 144.521 M 459.429 144.429 C 458.370 145.203, 457.851 146.184, 458.275 146.609 C 458.700 147.033, 459.798 146.631, 460.714 145.714 C 462.876 143.553, 461.926 142.603, 459.429 144.429 M 561.922 145.593 C 560.284 147.567, 560.177 154.226, 561.775 154.758 C 563.878 155.459, 564.320 155.052, 564.488 152.255 C 564.579 150.740, 565.005 148.262, 565.435 146.750 C 566.037 144.633, 565.875 144, 564.731 144 C 563.914 144, 562.650 144.717, 561.922 145.593 M 224.391 149.555 C 222.682 151.450, 221.569 153, 221.919 153 C 223.197 153, 227.012 149.845, 228.027 147.949 C 229.637 144.942, 227.836 145.737, 224.391 149.555 M 243.391 149.555 C 241.682 151.450, 240.569 153, 240.919 153 C 242.197 153, 246.012 149.845, 247.027 147.949 C 248.637 144.942, 246.836 145.737, 243.391 149.555 M 470 147.045 C 470 147.620, 468.895 149.195, 467.545 150.545 C 464.350 153.741, 465.907 153.743, 469.354 150.548 C 472.055 148.045, 472.795 146, 471 146 C 470.450 146, 470 146.470, 470 147.045 M 532.500 149 C 530.919 150.650, 530.076 152, 530.626 152 C 531.176 152, 532.919 150.650, 534.500 149 C 536.081 147.350, 536.924 146, 536.374 146 C 535.824 146, 534.081 147.350, 532.500 149 M 162.903 160.691 C 162.448 169.187, 163.691 176, 165.696 176 C 166.857 176, 167.081 175.327, 166.612 173.250 C 166.270 171.738, 165.703 168.124, 165.352 165.221 C 164.731 160.082, 163.098 157.061, 162.903 160.691 M 225.571 188.571 C 223.693 190.450, 223.475 197.349, 225.250 198.722 C 227.650 200.580, 229.819 200.853, 231.634 199.526 C 233.295 198.311, 233.211 198.237, 230.725 198.712 C 227.076 199.410, 225 197.488, 225 193.413 C 225 189.838, 227.820 187.333, 230.630 188.412 C 231.458 188.729, 231.836 188.544, 231.493 187.989 C 230.566 186.488, 227.337 186.806, 225.571 188.571 M 236.571 188.571 C 234.719 190.424, 234.478 197.078, 236.200 198.800 C 237.772 200.372, 242.476 200.340, 243.780 198.750 C 244.820 197.482, 245.324 194.866, 245.115 191.821 C 244.959 189.539, 242.265 187, 240 187 C 238.979 187, 237.436 187.707, 236.571 188.571 M 249.163 193.691 L 249.326 200.500 249.918 195 L 250.509 189.500 253.272 194.750 C 254.791 197.637, 256.476 200, 257.017 200 C 257.581 200, 257.928 197.120, 257.832 193.250 L 257.664 186.500 257.082 192.500 L 256.500 198.500 253.769 193.321 C 249.776 185.748, 248.974 185.813, 249.163 193.691 M 262.160 193.750 C 262.248 197.463, 262.500 199.065, 262.719 197.311 C 263.039 194.748, 263.646 194.041, 265.809 193.711 L 268.500 193.300 265.680 193.150 C 263.364 193.027, 262.918 192.600, 263.180 190.756 C 263.404 189.186, 264.400 188.321, 266.500 187.875 C 269.404 187.257, 269.379 187.233, 265.750 187.118 L 262 187 262.160 193.750 M 272.557 189.223 C 269.283 193.897, 271.515 200, 276.500 200 C 277.796 200, 279.564 199.293, 280.429 198.429 C 283.868 194.989, 281.122 187, 276.500 187 C 275.167 187, 273.426 187.982, 272.557 189.223 M 285 193.500 C 285 197.167, 285.436 200, 286 200 C 287.014 200, 287.348 197.148, 287.025 191.250 C 286.846 187.985, 287.490 187.483, 290.418 188.607 C 292.454 189.388, 292.468 192.606, 290.439 193.385 C 289.048 193.919, 289.071 194.312, 290.654 196.992 C 291.632 198.646, 292.795 200, 293.239 200 C 293.683 200, 293.301 198.863, 292.391 197.474 C 290.860 195.138, 290.859 194.814, 292.368 193.146 C 293.266 192.154, 294 191.073, 294 190.743 C 294 189.135, 290.537 187, 287.929 187 L 285 187 285 193.500 M 297 187.890 C 299.215 188.501, 299.566 189.260, 300.082 194.540 L 300.664 200.500 300.832 194.320 C 300.983 188.769, 301.229 188.095, 303.250 187.706 C 304.488 187.467, 303.025 187.256, 300 187.236 C 296.282 187.211, 295.310 187.423, 297 187.890 M 315.160 193.750 C 315.248 197.463, 315.500 199.065, 315.719 197.311 C 316.039 194.748, 316.646 194.041, 318.809 193.711 L 321.500 193.300 318.750 193.150 C 316.543 193.030, 316 192.519, 316 190.563 C 316 188.564, 316.583 188.054, 319.250 187.723 C 322.450 187.326, 322.442 187.318, 318.750 187.160 L 315 187 315.160 193.750 M 326 188.476 C 326 189.379, 326.403 189.869, 326.895 189.565 C 327.388 189.260, 328.063 189.721, 328.395 190.588 C 329.490 193.440, 329.029 195, 327.094 195 C 325.659 195, 325.291 194.444, 325.608 192.750 C 325.839 191.512, 325.381 192.075, 324.590 194 C 323.799 195.925, 323.146 198.175, 323.139 199 C 323.132 199.825, 323.534 199.488, 324.031 198.250 C 324.614 196.800, 325.782 196, 327.315 196 C 328.794 196, 330.105 196.851, 330.780 198.250 C 332.483 201.783, 332.043 198.064, 330.107 192.561 C 328.387 187.676, 326 185.301, 326 188.476 M 336.250 187.662 C 333.747 188.672, 334.859 192.699, 338 194 C 339.926 194.798, 341 195.962, 341 197.252 C 341 198.993, 340.529 199.185, 337.478 198.690 C 333.862 198.103, 333.421 199.354, 336.920 200.269 C 339.235 200.874, 343 198.496, 343 196.427 C 343 195.624, 341.409 194.209, 339.466 193.282 C 335.225 191.260, 335.129 188.399, 339.312 188.691 C 340.815 188.797, 341.784 188.459, 341.464 187.941 C 340.850 186.949, 338.350 186.815, 336.250 187.662 M 346.320 193.500 C 346.320 197.350, 346.502 199.037, 346.723 197.250 C 347.089 194.305, 347.444 194, 350.500 194 C 353.556 194, 353.911 194.305, 354.277 197.250 C 354.498 199.037, 354.680 197.350, 354.680 193.500 C 354.680 189.650, 354.498 187.963, 354.277 189.750 C 353.911 192.695, 353.556 193, 350.500 193 C 347.444 193, 347.089 192.695, 346.723 189.750 C 346.502 187.963, 346.320 189.650, 346.320 193.500 M 359.328 193.500 C 359.333 197.350, 359.513 198.802, 359.730 196.728 C 359.946 194.653, 359.943 191.503, 359.722 189.728 C 359.501 187.952, 359.324 189.650, 359.328 193.500 M 365.655 188.829 C 362.121 192.733, 364.241 200, 368.913 200 C 372.550 200, 374.400 197.737, 374.400 193.289 C 374.400 187.691, 369.121 184.999, 365.655 188.829 M 378.163 193.750 L 378.326 200.500 378.916 195 L 379.505 189.500 381.822 193.847 C 383.097 196.238, 384.327 198.006, 384.557 197.776 C 385.146 197.188, 379.662 187.019, 378.750 187.008 C 378.337 187.004, 378.073 190.037, 378.163 193.750 M 385.954 193 C 385.418 199.527, 385.530 200.803, 386.551 199.783 C 386.854 199.480, 386.963 196.367, 386.794 192.866 L 386.487 186.500 385.954 193 M 401.050 193.083 C 399.830 196.428, 399.054 199.387, 399.325 199.658 C 399.596 199.929, 400.114 199.217, 400.476 198.075 C 401.367 195.269, 405.982 195.213, 406.710 198 C 406.998 199.100, 407.590 200, 408.026 200 C 408.462 200, 407.868 197.075, 406.706 193.500 C 405.543 189.925, 404.294 187, 403.930 187 C 403.566 187, 402.270 189.737, 401.050 193.083 M 411 193.500 C 411 197.167, 411.436 200, 412 200 C 412.550 200, 413 198.680, 413 197.066 C 413 194.634, 413.470 194.062, 415.750 193.716 L 418.500 193.300 415.750 193.150 C 413.543 193.030, 413 192.519, 413 190.563 C 413 188.564, 413.583 188.054, 416.250 187.723 C 419.067 187.374, 418.934 187.299, 415.250 187.160 L 411 187 411 193.500 M 421 193.500 C 421 197.167, 421.436 200, 422 200 C 422.550 200, 423 198.680, 423 197.066 C 423 194.634, 423.470 194.062, 425.750 193.716 L 428.500 193.300 425.750 193.150 C 423.543 193.030, 423 192.519, 423 190.563 C 423 188.564, 423.583 188.054, 426.250 187.723 C 429.067 187.374, 428.934 187.299, 425.250 187.160 L 421 187 421 193.500 M 433.313 187.786 C 432.659 188.201, 431.642 189.811, 431.052 191.363 C 429.510 195.419, 431.576 199.393, 435.458 199.836 C 439.044 200.245, 441 197.966, 441 193.380 C 441 188.432, 436.942 185.478, 433.313 187.786 M 445.150 193.750 C 445.232 197.463, 445.487 199.262, 445.716 197.750 C 446.238 194.307, 448.665 194.171, 450.182 197.500 C 450.808 198.875, 451.710 200, 452.186 200 C 452.662 200, 452.376 198.694, 451.550 197.097 C 450.231 194.545, 450.227 194.127, 451.525 193.629 C 453.304 192.946, 453.460 189.860, 451.800 188.200 C 451.140 187.540, 449.340 187, 447.800 187 L 445 187 445.150 193.750 M 457 193.500 L 457 200 459.977 200 C 463.894 200, 466.449 196.320, 465.507 192.032 C 464.799 188.809, 462.484 187, 459.066 187 C 457.190 187, 457 187.598, 457 193.500 M 469.294 193.500 C 468.132 197.075, 467.538 200, 467.974 200 C 468.410 200, 469.002 199.100, 469.290 198 C 470.018 195.213, 474.633 195.269, 475.524 198.075 C 475.886 199.217, 476.427 199.906, 476.726 199.607 C 477.025 199.309, 476.759 197.700, 476.135 196.032 C 475.511 194.364, 474.495 191.650, 473.879 190 C 473.262 188.350, 472.454 187, 472.083 187 C 471.711 187, 470.457 189.925, 469.294 193.500 M 480 193.500 L 480 200 483.378 200 C 485.235 200, 487.268 199.382, 487.895 198.627 C 489.101 197.174, 488.408 194, 486.885 194 C 486.389 194, 486.549 193.073, 487.242 191.939 C 488.316 190.180, 488.216 189.667, 486.559 188.439 C 485.491 187.648, 483.579 187, 482.309 187 C 480.134 187, 480 187.377, 480 193.500 M 492.328 193.500 C 492.333 197.350, 492.513 198.802, 492.730 196.728 C 492.946 194.653, 492.943 191.503, 492.722 189.728 C 492.501 187.952, 492.324 189.650, 492.328 193.500 M 497.193 193.250 L 497 200 500.750 199.840 C 504.376 199.685, 504.394 199.667, 501.296 199.280 C 498.125 198.884, 498.089 198.817, 497.739 192.690 L 497.385 186.500 497.193 193.250 M 507.328 193.500 C 507.333 197.350, 507.513 198.802, 507.730 196.728 C 507.946 194.653, 507.943 191.503, 507.722 189.728 C 507.501 187.952, 507.324 189.650, 507.328 193.500 M 512.750 187.706 C 514.771 188.095, 515.017 188.769, 515.168 194.320 L 515.336 200.500 515.918 194.595 C 516.378 189.932, 516.920 188.527, 518.500 187.915 C 519.845 187.394, 518.863 187.162, 515.500 187.206 C 512.750 187.243, 511.512 187.467, 512.750 187.706 M 522.980 190.960 C 524.091 193.138, 525.046 196.176, 525.102 197.710 L 525.205 200.500 525.935 197.500 C 526.337 195.850, 527.449 192.996, 528.406 191.157 C 529.364 189.318, 529.916 187.582, 529.632 187.299 C 529.349 187.016, 528.379 188.520, 527.476 190.642 L 525.835 194.500 524.311 190.750 C 523.472 188.688, 522.375 187, 521.873 187 C 521.370 187, 521.868 188.782, 522.980 190.960 M 237.200 189.200 C 236.540 189.860, 236 191.795, 236 193.500 C 236 197.146, 237.548 199, 240.593 199 C 243.001 199, 244 197.276, 244 193.118 C 244 190.062, 242.389 188, 240 188 C 239.120 188, 237.860 188.540, 237.200 189.200 M 273.429 190.468 C 270.999 194.176, 272.684 198.500, 276.559 198.500 C 280.501 198.500, 282.115 194.351, 279.643 190.577 C 277.520 187.337, 275.504 187.302, 273.429 190.468 M 366.035 189.934 C 363.622 194.444, 365.410 199, 369.593 199 C 372.001 199, 373 197.276, 373 193.118 C 373 188.259, 368.125 186.030, 366.035 189.934 M 433.200 189.200 C 431.919 190.481, 431.607 194.811, 432.607 197.418 C 433.322 199.282, 437.086 199.514, 438.800 197.800 C 440.274 196.326, 440.354 192.530, 438.965 189.934 C 437.798 187.754, 435.002 187.398, 433.200 189.200 M 446 191 C 446 194.302, 447.483 194.829, 450.521 192.608 C 452.138 191.426, 452.224 190.975, 451.090 189.608 C 450.356 188.724, 448.910 188, 447.878 188 C 446.458 188, 446 188.732, 446 191 M 458 193.500 C 458 198.130, 458.285 199, 459.800 199 C 462.502 199, 464 196.980, 464 193.335 C 464 191.131, 463.372 189.734, 462.066 189.035 C 458.596 187.178, 458 187.832, 458 193.500 M 481 190.500 C 481 192.484, 481.504 193, 483.441 193 C 486.441 193, 487.579 191.402, 485.964 189.456 C 483.943 187.021, 481 187.640, 481 190.500 M 402.648 191.184 C 401.711 194.683, 401.829 195, 404.067 195 C 405.746 195, 406.007 194.577, 405.455 192.750 C 404.397 189.247, 403.326 188.650, 402.648 191.184 M 471.110 191.315 C 469.662 194.987, 469.665 195, 472 195 C 474.110 195, 474.389 193.793, 473.040 190.500 C 472.278 188.642, 472.142 188.699, 471.110 191.315 M 481 196.500 C 481 198.591, 481.474 199, 483.893 199 C 487.021 199, 488.530 196.930, 486.722 195.122 C 486.105 194.505, 484.565 194, 483.300 194 C 481.513 194, 481 194.558, 481 196.500" stroke="none" fill="#f8f7f6" fill-rule="evenodd"/></svg>